<svg xmlns="http://www.w3.org/2000/svg" viewBox="0 0 96 96" role="img" aria-label="Funddoo icon">
  <rect width="96" height="96" rx="18" fill="#1B9B6C"/>
  <!-- Infinity loop symbol -->
  <path d="M20 48 C20 36 30 28 42 32 C50 35 56 42 64 45 C72 48 82 46 82 48 C82 60 72 68 60 64 C52 61 46 54 38 51 C30 48 20 52 20 48 Z" fill="none" stroke="white" stroke-width="6" stroke-linecap="round"/>
  <!-- Heart dot in left loop -->
  <path d="M35 44 C35 41 37 40 38 42 C39 40 41 41 41 44 C41 46 39 47 38 49 C37 47 35 46 35 44 Z" fill="white"/>
  <!-- Plus in right loop -->
  <rect x="58" y="43" width="8" height="10" rx="1" fill="white" transform="translate(62,48) rotate(0) translate(-62,-48)"/>
  <rect x="59" y="44" width="6" height="8" rx="1" fill="#1B9B6C"/>
  <rect x="61" y="44" width="2" height="8" rx="1" fill="white"/>
  <rect x="59" y="47" width="6" height="2" rx="1" fill="white"/>
</svg>
